<svg xmlns="http://www.w3.org/2000/svg" viewBox="0 0 1188.63 498.28" style="width: 1em;height: 1em;vertical-align: middle;fill: currentColor;overflow: hidden;"><path d="M1524.87,682.82a71.49,71.49,0,0,1-27.74-4.5c-21.57-8.34-32.73-24.56-35.46-47-2.1-17.38,2.39-33.79,7.65-50.08,3.87-11.94,8.64-23.58,11.67-35.8a49.87,49.87,0,0,0,1.75-14.64c-.51-9.83-6.09-16.5-13.79-21.78-2.76-1.9-5.69-3.55-7.92-6.14-1.12-1.31-1.43-2.19.78-2.48,2.38-.32,4.75-.78,7.13-1.18a127.7,127.7,0,0,1,14.51,0l3.39,0a4.49,4.49,0,0,1,4.43-1c4.27,1.15,7.1-.77,9.49-4.06,3.43-4.74,5.49-10.11,7.45-15.52,1.71-4.72,3.12-9.54,4.93-14.22a13.42,13.42,0,0,1,3.35-5.38c2.73-5.25,5.13-10.65,8.55-15.57,8.11-11.65,19.53-17.81,33-20.71a113.41,113.41,0,0,1,14.34-1.86c2.34.37,5.61-1.14,6.79.6,1,1.48-1.42,4.07-2.1,6.26a4.68,4.68,0,0,0-.1.54c.85,1.41.18,2.72-.35,4q-10.18,24.45-20.48,48.85c-2,4.7-3.92,9.44-5.91,14.14-1,2.46-.54,3.21,2.2,3.24,7.91.07,15.82,0,23.72,0,1.48,0,3-.11,4.07,1.28.89.24,1.18.68.82,1.63q-3.87,10-7.63,20a2.19,2.19,0,0,1-2.15,1.41c-1.26,1.16-2.82,1.21-4.39,1.26-3.31.11-6.62-.23-9.91.28a11.46,11.46,0,0,1-3.87-.27A31,31,0,0,0,1538,525c-1.35.78-1.67,2.19-2.09,3.51-5.52,17.21-12.61,33.85-18.42,51-3.84,11.28-7.63,22.6-9.36,34.45-2.51,17.28.34,33.54,9.37,48.6,1.49,2.47,2.91,5,4.52,7.38a3.24,3.24,0,0,1,.57,3.39c1,2.48,2.48,4.77,3.06,7.43C1525.84,681.59,1526.33,682.54,1524.87,682.82Z" transform="translate(-392.61 -330.44)"/><path d="M1293.55,659.77a30.78,30.78,0,0,0-2.66,6.8c-.83,5.13-.83,5.17-6.12,5.19q-19.29.06-38.58,0c-5.3,0-6-1.12-4.06-6,.52-1.3,1.22-2.51,1.86-3.74,1.7-6.31,4.76-12.11,7.09-18.19,2.93-7.65,6-15.23,9.13-22.82,1.44-1.65,1.28-4,2.46-5.74,8-20.67,16.47-41.16,24.77-61.71,12.38-30.66,24.65-61.36,37.15-92,1.34-1.51,1.14-3.71,2.34-5.28,4.61-12.62,9.94-25,14.84-37.45,1-2.45,1.3-5.32,4-6.79,1.92-4.66,4-9.26,5.68-14,1.07-3.07,2.5-5,6-4.37a24,24,0,0,0,5.56.19c11.73,0,23.47,0,35.21,0,.9,0,2.12-.62,2.67.78q-5.89,14.56-11.78,29.13c1.1,1.72.08,3.25-.53,4.75-7.69,18.88-15.24,37.81-23,56.66-1.91,4.65-3.78,9.31-5.56,14-1.55,1.57-1.1,4.1-2.69,5.65-9,24.24-19.2,48-28.84,72q-14.57,36.27-29.36,72.46c-.7,1.72-2,3.17-2.26,5.06C1296.07,656.4,1296.16,658.93,1293.55,659.77Z" transform="translate(-392.61 -330.44)"/><path d="M1346.88,638.6l.51-8.84c-1.41-1-1-2.42-.8-3.82a141.7,141.7,0,0,1,9.31-30.11c6.48-15.5,14.42-30.28,21.84-45.33.74-1.5,1.48-3,2.13-4.55,1.45-1.78,1.54-4.23,2.92-6a97.34,97.34,0,0,0,4.34-13.5,16.28,16.28,0,0,0,.44-3c.2-6.56-2.63-9.62-9.24-9.87a51.72,51.72,0,0,0-10.54.58,4,4,0,0,1-1.6.33c-1.13,0-2.24-.06-2.83-1.2s0-2.12.56-3.06a6.6,6.6,0,0,1,1.13-1.17c6.25-6.8,14.23-10.57,22.94-13.06,1.07-.3,2.21-.5,3.15.44,6.62-1.29,13.26-2.11,20-.82,12.46,2.39,20.42,11.67,22,25.18,1.22,10.13-.69,19.83-3.24,29.5-.28,4.71-2.07,9-3.78,13.27-5.53,13.83-12.73,26.88-18.91,40.4-5.06,11.08-10.36,22.07-13.49,33.91a29.33,29.33,0,0,0-1.23,9.36c.21,3.37,1.1,6.43,4.22,8.35a1.88,1.88,0,0,1,1.09,1.51c2.8,1.15,5.53.34,8.18-.44,8.33-2.44,15.25-7.28,21.46-13.17,6.45-6.13,13.09-12.12,17.72-20a41.43,41.43,0,0,1-2.9,16.26c-5.78,15.08-16.81,25-31.13,31.82-3.07,1.45-6.51,2-9.39,3.87-7.17,3.92-14.68,3.86-22.34,1.84-2.56-.66-5.15-1.26-7.69-2a33.87,33.87,0,0,1-15.21-9.44c-1.34.33-2-.55-2.74-1.44-4.25-5.35-6.45-11.55-7.58-18.21C1345.76,643.55,1345.57,641,1346.88,638.6Z" transform="translate(-392.61 -330.44)" style="&#10;"/><path d="M1257.5,502.67a36.66,36.66,0,0,0,7.25-.61,6.88,6.88,0,0,1,1.76-.82c2.79-.87,4.52.51,3.86,3.37a81,81,0,0,1-4.57,13.7,8.05,8.05,0,0,0-.73,2.9c-4.47,11.31-8.79,22.69-13.54,33.89s-9.47,22.62-14.31,33.88c-.87,1.59-1.1,3.45-2.17,4.95-8.15,21.19-16.57,42.28-25.09,63.33-7.08,17.51-14.41,34.92-22.27,52.11a24.85,24.85,0,0,1-1.41,2.71c-.31,1.95-1.81,3.35-2.35,5.19a366.11,366.11,0,0,1-22.13,41.87c-4.39,7.25-9.29,14.14-14.24,21-2.49,1.56-3,4.69-5.22,6.51-1.82,1.1-2.7,3-4,4.57a121.8,121.8,0,0,1-34.54,27.91,84.36,84.36,0,0,1-33.31,9.56c-1.16.09-2.38.09-2.87-1.17s.31-2.1,1.26-2.82c4.74-3.6,9.64-7,14.09-11a84.22,84.22,0,0,0,13.92-16.62c.41-.62.84-1.23,1.23-1.86,4.81-9,10-17.84,14.63-27,7.64-15.12,14-30.8,20.76-46.33.67-1.53,1.55-3,2.2-4.48.08-.4.19-.79.26-1.19.5-1.5,1.55-2.76,1.89-4.33.66-2.35,2-4.43,2.6-6.81,2.57-3.75,3.24-8.28,5.09-12.33,2.8-4.13,3.8-9,5.67-13.55,13.23-32,26.1-64.17,39.17-96.25,1.57-3.85,2.87-7.89,5.45-11.28.78-1,.7-2.29,1-3.44,2.22-4.34,4.37-8.71,6.5-13.09,2.21-6.22,5-12.25,6-18.84.52-3.29,1.11-6.54.37-10a17.31,17.31,0,0,0-16.53-14c-7.4-.39-13.88,2.21-20.08,5.82a41.55,41.55,0,0,0-4.45,2.86,40.78,40.78,0,0,1-4.09,3.07,104.77,104.77,0,0,0-16.94,18.57c-2.18,1.52-2.83,4.14-4.4,6.1-.51.62-.69,1.49-1.41,2-2.57,4.09-4.73,8.41-6.88,12.7a136.56,136.56,0,0,0-13.11,40.7,96,96,0,0,0-.36,29.4c.24,1.55-.31,3.19.61,4.64.76,2.22.33,4.74,1.7,6.81,1.62,7,5,13.22,8.9,19.16,2,3,4,5.85,5.75,8.93,2.23,3.9,1.5,5.84-2.78,6.92-11.73,3-22.53.46-32.65-5.72a29.49,29.49,0,0,1-6-4.54c-1.29-1.06-2.83-1.84-3.77-3.3A69.78,69.78,0,0,1,1077.9,645c-1.38-2.9-1.81-3.08-4.07-.89-5.14,5-10.16,10.12-15.48,14.94-12.06,10.94-25.49,19.22-41.91,21.31-10,1.27-20,.68-28.76-5.36a37.33,37.33,0,0,1-16.31-26.25,30.87,30.87,0,0,1-.52-3.58,4.69,4.69,0,0,0,.28-1.65c-1.34-13.77,2.82-26.54,7.35-39.17,4.06-11.32,9.42-22.1,14.66-32.92,6.37-13.15,13.38-26,18-40a67.1,67.1,0,0,0,2.53-11.45c.53-3.68-.83-5.19-4.5-6-5-1.09-9.56.76-14.23,2-1.85.47-3.64,1.54-5.68.76-1.44-1.21-.87-2.42,0-3.67,2.62-3.91,6.38-6.53,10.34-8.79a59.37,59.37,0,0,1,34.31-7.91c14.12,1,25,12.43,25.84,27.18a10.42,10.42,0,0,0,.72,3.26c0,2-.41,4,0,6.05a112.1,112.1,0,0,1-8.74,33.64c-1.59,3.67-3.23,7.32-5,10.91-8,16.18-16.09,32.35-22.87,49.11-2.79,6.9-5.48,13.86-5.9,21.45a15.48,15.48,0,0,0,.7,5.76c1,3,3,4.52,6.19,4.75a21.72,21.72,0,0,0,10.56-2.21,57,57,0,0,0,16.33-11.09c3.29-3.17,6.42-6.49,9.71-9.66A35.42,35.42,0,0,0,1072,613.9c2.27-17.19,6.82-33.71,14.64-49.29,7.27-14.47,16.46-27.41,28.87-37.94.64-.54,1.16-1.21,1.78-1.77a107.81,107.81,0,0,1,24-17.58c3.1-1.73,6.27-3.32,9.52-4.73a68.88,68.88,0,0,1,22.12-6.67,66.2,66.2,0,0,1,29.59,1.92,32.8,32.8,0,0,1,16.86,11.34c1.15,1.49,2.54,2.73,3.81,4.1,1.48,1.6,2.9,1.66,4.6.24a57,57,0,0,1,15.65-9.08c3.67-1.45,7.55-2,11.38-2.79A2.45,2.45,0,0,1,1257.5,502.67Z" transform="translate(-392.61 -330.44)"/><path d="M620.67,614.06l-2.19,5.38a5.36,5.36,0,0,1-.94,4.13c-1.61,2.56-3.28,5.08-4.87,7.64a11.54,11.54,0,0,0-3.19,4c-2.53,4.46-5.86,8.33-9.14,12.22a164.36,164.36,0,0,1-28.62,26.27,9,9,0,0,1-2.36,1.46A124.09,124.09,0,0,1,527.61,695a23,23,0,0,1-2.48.32c-.84.14-1.58.71-2.48.54a12.18,12.18,0,0,0-5.36,1.37,110.48,110.48,0,0,1-18.87,1.93c-13.88.19-26.94-3.15-39.56-8.57a103.65,103.65,0,0,1-25.17-15.87c-21.94-18.23-34.43-41.9-39.08-69.81a150.45,150.45,0,0,1-1.84-31.73c1.2-25.78,7.46-50.37,17.41-74.11a324,324,0,0,1,25.9-49.44,371.42,371.42,0,0,1,34.83-46.07,301.09,301.09,0,0,1,39.86-37Q522,357.78,534,350.1c1.73-1.11,3.66-1.83,5.38-2.94a9.32,9.32,0,0,0,2.15-1.22,8.26,8.26,0,0,0,2.88-1.64,102.29,102.29,0,0,1,38.2-13.42c1.22-.16,2.42.11,3.63.05,4.17-1,8.31-.27,12.45.26,1.19.11,2.29.37,2.86,1.58a48.66,48.66,0,0,1,21.86,11.67c2.38.38,6.72,4.5,7.13,6.77.33,1.8-1,3-3.23,2.6a69,69,0,0,0-11.11-.86,74.75,74.75,0,0,0-17.37,2.4,103.54,103.54,0,0,0-17.75,7.22,144.63,144.63,0,0,0-20.29,13.79,184.16,184.16,0,0,0-22.15,21.2A18.27,18.27,0,0,1,535.9,400c-6.28,6.76-11.82,14.13-17.46,21.41A376.74,376.74,0,0,0,487.32,468,345.68,345.68,0,0,0,463,521.29c-4.44,12.49-8.29,25.14-10.29,38.27-3,19.66-3.37,39.32,1.35,58.81a67,67,0,0,0,12.24,26.14,52.26,52.26,0,0,0,23.94,17.28,23.94,23.94,0,0,0,3.94,1.39c5.61,1,11.11,2.76,16.89,2.64a25.45,25.45,0,0,0,9.41,0C527,665,533,662.46,539,659.88s11.49-6.14,17.37-9a3.65,3.65,0,0,0,1.27-1.08,155.19,155.19,0,0,0,23.22-17.79c5.28-4.84,9.94-10.27,15-15.35,1.88-2.91,3.57-5.94,6.08-8.39,1.45-2.58,3.06-5.09,4.3-7.79,1.54-1.67,1.59-4.12,3.08-5.81a5.35,5.35,0,0,0,.8-2.35c1.19-4,2.65-5,6.9-4.51,3.19.34,5,2.42,6,5.19,2.26,6.47,1,12.87-.61,19.24C622.11,613.19,621.34,613.57,620.67,614.06Z" transform="translate(-392.61 -330.44)"/><path d="M681.1,362.85a88.05,88.05,0,0,1,3.67,11.44c1.55.51,1.67,2,1.85,3.18a77.82,77.82,0,0,1-2.44,34.71c-.35,1.14-.71,2.36-2.11,2.72l-4.29,10c.06,4.76-3.52,7.26-6.34,10.23a65.18,65.18,0,0,1-13.15,13,7.56,7.56,0,0,0-1.22,1.45,36.07,36.07,0,0,1-15.36,8.06c-8.13,2.16-16.29,2.87-24.22-.89a21.24,21.24,0,0,1-10-9.23,6.87,6.87,0,0,0-1.06-1.28c-1.23-1.22-1.64-2.85-2.23-4.38-1-2.72-.59-3.82,2-5.44,5.28-3.8,10.81-7.25,15.88-11.37,14.76-12,23.91-27,26-46.14,1.21-11.24-.68-22.05-3.47-32.82-.55-2.17-2.09-4.28-.88-6.7l-2.08-6.66a52.88,52.88,0,0,1,28.3,13.45,2,2,0,0,1,1.83.38C676.11,351.2,680.68,355.84,681.1,362.85Z" transform="translate(-392.61 -330.44)"/><path d="M836.58,672.12H832a3.12,3.12,0,0,1-2.93,1.25q-15.62.2-31.24,0a4,4,0,0,1-2.64-.68,3.09,3.09,0,0,1-.46-3.61c3.35-8,6.56-16.13,10.17-24.06,4-11.38,8.79-22.44,13.23-33.64,1.35-2,1.38-4.51,2.8-6.44,2.42-7.52,5.76-14.68,8.56-22.05a34.14,34.14,0,0,1,1.51-4.18c2.7-3.32,3-7.62,4.63-11.36,1.68-1.77,1.9-4.17,2.75-6.31q11.31-28.59,22.81-57.11a4.49,4.49,0,0,1,4.44-3.13c4.86-.19,9.68.37,14.51.47,8.86.19,17.72,0,26.58.07a22.74,22.74,0,0,0,7.4-1.22c11.16-3.65,22.53-5,34.16-2.63,8.66,1.77,16.18,5.5,21.71,12.68,1,1.35,1.58,2.95,2.55,4.32,3.29,6.37,4.07,13.18,3.4,20.22A79.82,79.82,0,0,1,972.15,552a41.23,41.23,0,0,0-2.13,5.36c-.47,1.12-.89,2.28-2.32,2.51-20.11.1-40.22.17-60.32,0-1.75-.58-1.59-1.83-1-3.12a24.68,24.68,0,0,1,3.39-5.7,6.55,6.55,0,0,0,1.36-3,120.64,120.64,0,0,0,10-18.93,24.21,24.21,0,0,0,1.16-4c1-4.85-.89-7.8-5.72-8.72a46.29,46.29,0,0,0-5.79-.75c-2.68-.15-4.07,1-5,3.42-5.41,13.55-10.95,27-16.31,40.61-.65,1.65-1.56,3.16-2.21,4.79-2.9,8.25-6.32,16.28-9.61,24.37-7,17.21-13.86,34.48-20.92,51.66-1.35,1.4-1,3.55-2.25,5-2.94,8.26-6.34,16.32-9.63,24.43C843.3,673.74,839.89,674.59,836.58,672.12Z" transform="translate(-392.61 -330.44)" style="&#10;"/><path d="M713.09,671c-5.31,1.78-10.76,1.24-16.18.89-4.09-.27-8-1.61-11.89-2.65l-4.43-2c-1.74,1-3-.13-4.33-1-15.22-9.84-24.28-24-27.74-41.5a86,86,0,0,1,2.11-40.59c6.09-21.45,17.11-40.1,32.29-56.34,2.28-2.44,5-4.5,7.43-6.75a126.61,126.61,0,0,1,19.51-15.15,4.81,4.81,0,0,1,3.72-.63l4.39-2.58a4.72,4.72,0,0,1,2.5-2.49,108.34,108.34,0,0,1,33.09-10.59,68.12,68.12,0,0,1,26.61.54c13.62,3.16,23.48,11.17,30.26,23.22a4.3,4.3,0,0,1,.37,3.48l1.86,4.82c1.4.36,1.77,1.54,2.13,2.7a57.8,57.8,0,0,1,2.39,13.14,105.7,105.7,0,0,1-9,49.72c-.38.86-.65,1.75-1.07,2.58-1.38,1.66-1.6,4-3,5.6a109.81,109.81,0,0,1-22.8,31.22,69,69,0,0,1-22.51,16.21c-7.1,3.17-14.43,4.87-22.2,2.33-4.6-1.5-8.09-4.5-11.3-7.91a4,4,0,0,1-.58-4.91,30.26,30.26,0,0,1,6.36-8.41,139.21,139.21,0,0,0,24.4-31.06,231.67,231.67,0,0,0,10.95-22c1-2.35,2.89-4.4,2.83-7.18,1.24-3.55,3.77-6.64,3.83-10.62,2.94-8.76,5-17.69,5.15-27A32.67,32.67,0,0,0,776.64,516c-2.64-8.7-9.07-12.47-18-10.55-6.8,1.45-12.58,4.95-17.94,9.22-1.89,1.51-3.77,3-5.54,4.67-1.28,1.65-3,2.86-4.29,4.53-11.73,13.41-20.19,28.72-26.58,45.27-4.92,12.73-8.66,25.79-9.91,39.39a76.12,76.12,0,0,0,.57,20.88c.31,1.62-.34,3.38.73,4.88.9,1.92.6,4.18,1.76,6a77.36,77.36,0,0,0,12.45,23.23c1.07,1.41,2,2.88,3,4.38C713.43,668.84,714,669.87,713.09,671Z" transform="translate(-392.61 -330.44)"/><path d="M1054.83,402.65a74,74,0,0,1,36.66-13.83,69.43,69.43,0,0,1,25.52,1.52c7.76,2.07,14.49,5.8,19.44,12.31.81,1.52,1.61,3.05,2.42,4.58a3.37,3.37,0,0,1,1.87,3.16,92.27,92.27,0,0,1,0,16.37c-.23,2.54-1.26,3.39-3.88,3.22-2.31-.15-4.58-.7-6.88-.93-14.66-1.73-29.19-1.91-43.28,3.45-1.82.69-3.55,1.73-5.61.91l-4.58,2.43c-12.85,7.45-21.79,18.45-28.47,31.47-2.07,4.05-4,8.18-6,12.29-1.31-.21-1.67-1.27-2.23-2-12.41-16.82-13.26-36.74-2.46-55.06a86.77,86.77,0,0,1,11.49-14.73Z" transform="translate(-392.61 -330.44)"/><path d="M1089.62,712.34l2.67,4.66c1.33,2.38.1,3.56-1.91,4.7-4.25,2.39-8.39,5-12.57,7.47.12,1.55-1.15,2-2.14,2.63a65.21,65.21,0,0,0-25,28.92A79,79,0,0,0,1045,782c-.78,5.48-.42,11-.54,16.45,0,1.38.16,2.82-.78,4-.06,3.94,1,7.7,1.88,11.48a68.86,68.86,0,0,0,4.08,10.89c-4,.17-7.39-1-10.82-2-4.91-1.37-9-4.17-13-7.22-7.64-5.94-12.76-13.79-16.63-22.54-3-2.55-3.5-6.22-4.26-9.74a55,55,0,0,1-1.11-15.52c.15-2,0-4.35,2-5.82q1-4.89,2.06-9.78a2.56,2.56,0,0,1-.36-2.87c3.91-11,9.27-21.22,17.42-29.78a7.23,7.23,0,0,1,3.78-2.23l5-4.78c4.73-3.43,9.47-6.8,14.83-9.21a71.94,71.94,0,0,1,11.88-3.77l7.07-.24C1077.12,699.86,1084.24,704.63,1089.62,712.34Z" transform="translate(-392.61 -330.44)"/></svg>